<svg version="1.1" xmlns="http://www.w3.org/2000/svg" xmlns:xlink="http://www.w3.org/1999/xlink" width="40.49735" height="43" viewBox="0,0,40.49735,43"><defs><linearGradient x1="222" y1="177" x2="252.2093" y2="177" gradientUnits="userSpaceOnUse" id="color-1"><stop offset="0" stop-color="#000000"/><stop offset="1" stop-color="#ff0000"/></linearGradient></defs><g transform="translate(-216.87501,-155.25)"><g data-paper-data="{&quot;isPaintingLayer&quot;:true}" fill-rule="nonzero" stroke-linecap="butt" stroke-linejoin="miter" stroke-miterlimit="10" stroke-dasharray="" stroke-dashoffset="0" style="mix-blend-mode: normal"><path d="M257.37236,176.75c0,11.87412 -9.06564,21.5 -20.24867,21.5c-11.18303,0 -20.24867,-9.62588 -20.24867,-21.5c0,-11.87412 9.06564,-21.5 20.24867,-21.5c11.18303,0 20.24867,9.62588 20.24867,21.5z" fill="#000000" stroke="none" stroke-width="0"/><path d="M252.2093,177c0,8.64359 -6.76258,15.6506 -15.10465,15.6506c-8.34207,0 -15.10465,-7.00701 -15.10465,-15.6506c0,-8.64359 6.76258,-15.6506 15.10465,-15.6506c8.34207,0 15.10465,7.00701 15.10465,15.6506z" fill="url(#color-1)" stroke="#000000" stroke-width="3"/></g></g></svg>