<svg version="1.1" xmlns="http://www.w3.org/2000/svg" xmlns:xlink="http://www.w3.org/1999/xlink" width="140.03798" height="146.15311" viewBox="0,0,140.03798,146.15311"><g transform="translate(-170.92139,-79.31787)"><g data-paper-data="{&quot;isPaintingLayer&quot;:true}" stroke-miterlimit="10" stroke-dasharray="" stroke-dashoffset="0" style="mix-blend-mode: normal"><text transform="translate(171.84937,202.27147) scale(1.85596,1.85596)" font-size="40" xml:space="preserve" fill="#000000" fill-rule="nonzero" stroke="none" stroke-width="1" stroke-linecap="butt" stroke-linejoin="miter" stroke-miterlimit="10" stroke-dasharray="" stroke-dashoffset="0" font-family="Sans Serif" font-weight="normal" text-anchor="start" style="mix-blend-mode: normal"><tspan x="0" dy="0">MM</tspan></text><g fill-rule="evenodd"><g><path d="M232.07733,129.75733c0.56993,0.28497 1.78104,0.92614 0.07124,3.34835c-1.70979,2.42221 -6.62545,2.9209 -7.19538,2.9209c-2.20848,0.07124 -4.91566,0.07124 -7.9078,-0.92614c-8.69145,-2.84966 -8.76269,-12.18228 -5.98428,-13.67835c2.70717,-1.49607 3.91828,4.27448 7.83656,7.76531c1.70979,1.56731 3.77579,2.13724 5.48559,2.49345c2.42221,0.42745 7.0529,-2.27973 7.69407,-1.92352z" fill="#ffab19" stroke="#001026" stroke-width="1.2" stroke-linecap="round" stroke-linejoin="round"/><path d="M214.40946,123.98677c1.13986,1.92352 3.34835,4.63069 3.34835,4.63069c0,0 -2.63593,-0.64117 -4.132,0.56993c-1.2111,0.92614 -0.92614,2.49345 -0.78366,2.99214c-0.92614,-0.92614 -2.066,-2.20848 -2.77842,-4.70193c-0.71241,-2.49345 0,-5.48559 1.42483,-5.91304c1.42483,-0.28497 1.78104,0.78366 2.9209,2.42221z" fill="#ffffff" stroke="none" stroke-width="1" stroke-linecap="butt" stroke-linejoin="miter"/></g><path d="M235.6394,137.16644c-1.28235,0.8549 -5.69931,3.98952 -11.32738,5.77055l-0.28497,0.07124c-0.28497,0.07124 -0.42745,0.42745 -0.28497,0.71241c1.2111,1.70979 3.41959,5.12938 -0.49869,6.34049c-3.77579,1.2111 -10.82869,-8.83394 -7.83656,-11.46987c1.35359,-0.99738 2.56469,-0.49869 3.20586,-0.21372c0.35621,0.14248 0.71241,0.14248 1.06862,0.07124c0.8549,-0.28497 2.42221,-0.8549 3.63331,-1.49607c3.06338,-1.56731 3.77579,-2.20848 5.20062,-3.27711c1.42483,-1.06862 4.70193,-3.70455 7.33787,-1.42483c2.27973,1.92352 0.99738,4.06076 -0.21372,4.91566z" fill="#ffab19" stroke="#001026" stroke-width="1.2" stroke-linecap="round" stroke-linejoin="round"/><path d="M246.96679,122.34822c0.35621,0.28497 4.70193,5.41435 6.12676,4.132c1.70979,-1.49607 4.06076,-4.41697 6.62545,-2.066c2.56469,2.35097 -2.27973,6.34049 -4.34573,7.40911c-4.91566,2.20848 -8.90518,-1.99476 -9.76007,-3.13462c-0.8549,-1.13986 -2.35097,-3.06338 -2.35097,-4.91566c0.07124,-1.99476 2.49345,-2.49345 3.70455,-1.42483z" fill="#ffab19" stroke="#001026" stroke-width="1.2" stroke-linecap="round" stroke-linejoin="round"/><g><path d="M247.03803,138.94747c1.49607,1.35359 4.77317,4.132 4.77317,4.132c0,0 10.18752,-1.78104 10.18752,3.34835c0,3.06338 -5.12938,3.77579 -12.0398,3.13462c-0.42745,-0.07124 -0.8549,-0.21372 -1.2111,-0.49869c-1.56731,-1.35359 -6.05552,-5.34311 -8.90518,-8.12152c-4.20324,-4.132 -7.69407,-6.83918 -7.69407,-6.83918c-6.05552,-5.91304 -1.13986,-8.40649 0.78366,-11.82607c1.78104,-2.9209 2.56469,-2.35097 6.83918,-1.49607c2.42221,0.35621 3.84704,0.56993 5.41435,0.49869c2.35097,-0.07124 1.92352,3.34835 1.28235,5.12938c0,0 -0.99738,2.63593 -1.92352,3.98952c-1.13986,1.63855 -1.99476,2.70717 -2.84966,3.34835z" fill="#ffab19" stroke="#001026" stroke-width="1.2" stroke-linecap="round" stroke-linejoin="round"/><path d="M241.05375,133.67561c0,0 -1.06862,-0.8549 -2.20848,-1.92352c-1.42483,-1.28235 -2.84966,-2.35097 -1.42483,-4.55945c1.28235,-1.70979 2.49345,-3.98952 5.69931,-1.92352c3.06338,1.92352 1.70979,3.70455 1.70979,3.70455c-1.56731,3.20586 -3.77579,4.70193 -3.77579,4.70193z" fill="#ffffff" stroke="none" stroke-width="1" stroke-linecap="butt" stroke-linejoin="miter"/></g><path d="M230.29629,127.83381c1.56731,1.99476 3.98952,4.48821 0.92614,6.55421c-4.20324,2.35097 -7.69407,-4.77317 -8.40649,-7.26662c-0.64117,-2.20848 1.2111,-3.63331 2.77842,-4.84442c3.06338,-2.20848 5.62807,-4.20324 8.47773,-3.13462c3.56207,1.28235 0.99738,4.132 -0.78366,5.41435c-1.06862,0.78366 -2.13724,1.63855 -2.9209,2.13724c-0.21372,0.35621 -0.28497,0.78366 -0.07124,1.13986z" fill="#ffab19" stroke="#001026" stroke-width="1.2" stroke-linecap="round" stroke-linejoin="round"/><g><path d="M252.73734,79.8171c0.21372,-0.14248 0.56993,-0.07124 0.64117,0.21372l1.85228,7.62283c0,0 4.55945,3.34835 5.91304,5.69931c2.27973,3.91828 2.35097,7.12414 2.35097,7.12414c0,0 5.05814,1.49607 5.91304,5.55683c0.8549,4.06076 -2.27973,11.75483 -15.67311,14.39077c-13.39339,2.63593 -24.15084,-0.99738 -29.20898,-9.1189c-5.05814,-8.12152 2.9209,-17.81035 2.49345,-17.24042l-1.49607,-12.75221c-0.07124,-0.28497 0.28497,-0.49869 0.56993,-0.35621l8.62021,5.62807c0,0 3.20586,-1.2111 6.55421,-1.35359c1.99476,-0.14248 3.70455,0 5.34311,0.28497z" fill="#ffab19" stroke="#001026" stroke-width="1.2" stroke-linecap="butt" stroke-linejoin="miter"/><path d="M263.28107,100.76207c0,0 4.91566,1.28235 5.77055,5.34311c0.8549,4.06076 -2.56469,11.39863 -15.81559,13.96332c-17.24042,3.56207 -25.43318,-6.69669 -20.66001,-14.24828c4.77317,-7.62283 12.96594,-1.13986 18.95022,-1.56731c5.12938,-0.35621 5.69931,-4.84442 11.75483,-3.49083z" fill="#ffffff" stroke="none" stroke-width="1" stroke-linecap="butt" stroke-linejoin="miter"/><path d="M240.84002,108.38491c0,-0.28497 0.28497,-0.49869 0.56993,-0.42745c1.35359,0.49869 5.20062,1.63855 9.47511,1.92352c3.84704,0.21372 6.12676,0 7.19538,-0.21372c0.35621,-0.07124 0.64117,0.28497 0.49869,0.64117c-0.64117,1.92352 -3.34835,7.26662 -10.82869,6.83918c-6.48297,-0.71241 -7.12414,-5.27186 -6.91042,-8.76269z" fill="#ffffff" stroke="#001026" stroke-width="1.2" stroke-linecap="round" stroke-linejoin="round"/><path d="M276.38949,101.54573c-3.34835,2.70717 -8.47773,2.77842 -8.47773,2.77842" fill="none" stroke="#001026" stroke-width="1.2" stroke-linecap="round" stroke-linejoin="round"/><path d="M275.46335,109.52477c-4.48821,0.35621 -7.26662,-0.99738 -7.26662,-0.99738" fill="none" stroke="#001026" stroke-width="1.2" stroke-linecap="round" stroke-linejoin="round"/><path d="M251.24127,102.40063c1.49607,0 3.06338,0.14248 3.13462,0.64117c0.07124,0.99738 -0.99738,2.99214 -2.13724,3.06338c-1.28235,0.14248 -4.27448,-1.63855 -4.27448,-2.77842c-0.07124,-0.8549 1.85228,-0.92614 3.27711,-0.92614z" fill="#001026" stroke="#001026" stroke-width="1.2" stroke-linecap="round" stroke-linejoin="round"/><path d="M219.18263,101.33201c0,0 6.12676,1.99476 8.62021,4.20324" fill="none" stroke="#001026" stroke-width="1.2" stroke-linecap="round" stroke-linejoin="round"/><path d="M228.01657,108.0287c-3.06338,1.2111 -8.33525,0.42745 -8.33525,0.42745" fill="none" stroke="#001026" stroke-width="1.2" stroke-linecap="round" stroke-linejoin="round"/><g><path d="M259.64776,94.06538c2.066,3.20586 2.13724,6.83918 0.14248,8.12152c-1.99476,1.28235 -5.27186,-0.21372 -7.40911,-3.41959c-2.066,-3.20586 -2.13724,-6.83918 -0.14248,-8.12152c1.99476,-1.35359 5.34311,0.21372 7.40911,3.41959z" fill="#ffffff" stroke="#001026" stroke-width="1.2" stroke-linecap="round" stroke-linejoin="round"/><path d="M259.36279,98.12614c0,0.78366 -0.56993,1.42483 -1.28235,1.42483c-0.71241,0 -1.28235,-0.64117 -1.28235,-1.42483c0,-0.78366 0.56993,-1.42483 1.28235,-1.42483c0.71241,0 1.28235,0.64117 1.28235,1.42483" fill="#001026" stroke="none" stroke-width="1" stroke-linecap="butt" stroke-linejoin="miter"/></g><g><path d="M241.97989,96.06014c2.13724,3.13462 1.99476,6.98166 0.07124,8.33525c-2.35097,1.35359 -5.48559,0.35621 -7.62283,-2.77842c-2.20848,-3.13462 -2.35097,-7.19538 -0.14248,-8.76269c2.20848,-1.63855 5.55683,0.07124 7.69407,3.20586z" fill="#ffffff" stroke="#001026" stroke-width="1.2" stroke-linecap="round" stroke-linejoin="round"/><path d="M241.55244,100.19214c0,0.78366 -0.56993,1.42483 -1.28235,1.42483c-0.71241,0 -1.28235,-0.64117 -1.28235,-1.42483c0,-0.78366 0.56993,-1.42483 1.28235,-1.42483c0.71241,0.07124 1.28235,0.64117 1.28235,1.42483" fill="#001026" stroke="none" stroke-width="1" stroke-linecap="butt" stroke-linejoin="miter"/></g></g></g></g></g></svg>