<svg version="1.1" xmlns="http://www.w3.org/2000/svg" xmlns:xlink="http://www.w3.org/1999/xlink" width="37.90741" height="40.25" viewBox="0,0,37.90741,40.25"><defs><linearGradient x1="222" y1="177" x2="252.2093" y2="177" gradientUnits="userSpaceOnUse" id="color-1"><stop offset="0" stop-color="#000000"/><stop offset="1" stop-color="#ff0000"/></linearGradient></defs><g transform="translate(-218.125,-156.75)"><g data-paper-data="{&quot;isPaintingLayer&quot;:true}" fill-rule="nonzero" stroke-linecap="butt" stroke-linejoin="miter" stroke-miterlimit="10" stroke-dasharray="" stroke-dashoffset="0" style="mix-blend-mode: normal"><path d="M256.03241,176.875c0,11.11473 -8.48586,20.125 -18.9537,20.125c-10.46784,0 -18.9537,-9.01027 -18.9537,-20.125c0,-11.11473 8.48586,-20.125 18.9537,-20.125c10.46784,0 18.9537,9.01027 18.9537,20.125z" fill="#000000" stroke="none" stroke-width="0"/><path d="M252.2093,177c0,8.64359 -6.76258,15.6506 -15.10465,15.6506c-8.34207,0 -15.10465,-7.00701 -15.10465,-15.6506c0,-8.64359 6.76258,-15.6506 15.10465,-15.6506c8.34207,0 15.10465,7.00701 15.10465,15.6506z" fill="url(#color-1)" stroke="#000000" stroke-width="3"/></g></g></svg>