<svg version="1.1" xmlns="http://www.w3.org/2000/svg" xmlns:xlink="http://www.w3.org/1999/xlink" width="44.38112" height="44.38112" viewBox="0,0,44.38112,44.38112"><defs><linearGradient x1="197.375" y1="158.82299" x2="241.75613" y2="158.82299" gradientUnits="userSpaceOnUse" id="color-1"><stop offset="0" stop-color="#8dc63f"/><stop offset="1" stop-color="#006838"/></linearGradient><radialGradient cx="219.56556" cy="158.82299" r="18.14996" gradientUnits="userSpaceOnUse" id="color-2"><stop offset="0" stop-color="#d7df23"/><stop offset="1" stop-color="#009444"/></radialGradient></defs><g transform="translate(-197.37501,-136.632)"><g data-paper-data="{&quot;isPaintingLayer&quot;:true}" fill-rule="nonzero" stroke="none" stroke-width="1" stroke-linecap="butt" stroke-linejoin="miter" stroke-miterlimit="10" stroke-dasharray="" stroke-dashoffset="0" style="mix-blend-mode: normal"><path d="M241.75613,158.82256c0,12.23529 -9.95421,22.19056 -22.19056,22.19056c-12.23582,0 -22.19056,-9.95527 -22.19056,-22.19056c0,-12.23582 9.95421,-22.19056 22.19056,-22.19056c12.23636,0 22.19056,9.95527 22.19056,22.19056z" fill="url(#color-1)"/><path d="M201.41529,158.8231c0,-10.02412 8.12616,-18.15028 18.15028,-18.15028c10.02412,0 18.15028,8.12616 18.15028,18.15028c0,10.02412 -8.12616,18.15028 -18.15028,18.15028c-10.02412,0 -18.15028,-8.12616 -18.15028,-18.15028z" fill="url(#color-2)"/><text transform="translate(213.83792,165.24505) scale(0.5,0.5)" font-size="40" xml:space="preserve" fill="#ff0000" fill-rule="nonzero" stroke="none" stroke-width="1" stroke-linecap="butt" stroke-linejoin="miter" stroke-miterlimit="10" stroke-dasharray="" stroke-dashoffset="0" font-family="Sans Serif" font-weight="normal" text-anchor="start" style="mix-blend-mode: normal"><tspan x="0" dy="0">P</tspan></text></g></g></svg>